<svg width="133" height="133" viewBox="0 0 133 133" fill="none" xmlns="http://www.w3.org/2000/svg">
<g clip-path="url(#clip0_226_147)">
<path fill-rule="evenodd" clip-rule="evenodd" d="M66.5 129.994C101.567 129.994 129.994 101.567 129.994 66.5C129.994 31.433 101.567 3.00583 66.5 3.00583C31.433 3.00583 3.00583 31.433 3.00583 66.5C3.00583 101.567 31.433 129.994 66.5 129.994ZM66.5 133C103.227 133 133 103.227 133 66.5C133 29.773 103.227 0 66.5 0C29.773 0 0 29.773 0 66.5C0 103.227 29.773 133 66.5 133Z" fill="#211814"/>
<path fill-rule="evenodd" clip-rule="evenodd" d="M113.514 43.949C113.514 49.0317 109.379 53.1518 104.279 53.1518H94.8764V34.7462H104.279C109.379 34.7462 113.514 38.8663 113.514 43.949ZM104.279 50.1399C107.71 50.1399 110.491 47.3683 110.491 43.949C110.491 40.5297 107.71 37.758 104.279 37.758H97.8988V50.1399H104.279Z" fill="#211814"/>
<path fill-rule="evenodd" clip-rule="evenodd" d="M79.2622 43.949C79.2622 49.0317 83.3965 53.1518 88.4966 53.1518H97.8991V34.7462H88.4966C83.3965 34.7462 79.2622 38.8663 79.2622 43.949ZM88.4966 50.1399C85.0657 50.1399 82.2843 47.3683 82.2843 43.949C82.2843 40.5297 85.0657 37.758 88.4966 37.758H94.8769V50.1399H88.4966Z" fill="#211814"/>
<path fill-rule="evenodd" clip-rule="evenodd" d="M79.2622 59.3428C79.2622 64.4252 83.3965 68.5456 88.4966 68.5456H97.8991V50.1397L88.4966 50.1399C83.3965 50.1399 79.2622 54.26 79.2622 59.3428ZM88.4966 65.5337C85.0657 65.5337 82.2843 62.7618 82.2843 59.3428C82.2843 55.9235 85.0657 53.1518 88.4966 53.1518L94.8769 53.1515V65.5337H88.4966Z" fill="#211814"/>
<path fill-rule="evenodd" clip-rule="evenodd" d="M79.2622 74.7365C79.2622 79.8297 83.4489 83.9393 88.5382 83.9393C93.6741 83.9393 97.8991 79.7921 97.8991 74.6528V65.5337H88.4966C83.3965 65.5337 79.2622 69.6538 79.2622 74.7365ZM88.5382 80.9275C85.0968 80.9275 82.2843 78.1453 82.2843 74.7365C82.2843 71.3172 85.0657 68.5456 88.4966 68.5456H94.8769V74.6528C94.8769 78.1076 92.0263 80.9275 88.5382 80.9275Z" fill="#211814"/>
<path fill-rule="evenodd" clip-rule="evenodd" d="M94.8751 59.3428C94.8751 64.4252 99.0094 68.5456 104.11 68.5456H104.278C109.378 68.5456 113.512 64.4252 113.512 59.3428C113.512 54.26 109.378 50.1397 104.278 50.1397H104.11C99.0094 50.1397 94.8751 54.26 94.8751 59.3428ZM104.11 65.5337C100.679 65.5337 97.8972 62.7618 97.8972 59.3428C97.8972 55.9235 100.679 53.1515 104.11 53.1515H104.278C107.708 53.1515 110.49 55.9235 110.49 59.3428C110.49 62.7618 107.708 65.5337 104.278 65.5337H104.11Z" fill="#211814"/>
<path fill-rule="evenodd" clip-rule="evenodd" d="M42.9764 79.5203L44.6593 81.0278C44.5131 81.445 44.4336 81.8933 44.4336 82.3602C44.4336 84.5825 46.2361 86.3842 48.4594 86.3842C50.6827 86.3842 52.4852 84.5825 52.4852 82.3602C52.4852 81.9312 52.4181 81.5177 52.2938 81.13L54.0952 79.5164L54.1802 79.4405C60.397 73.8935 65.8002 69.0723 69.6198 64.4739C72.343 61.1956 74.4231 57.8445 75.4165 54.2119C77.1769 53.7818 78.4832 52.1947 78.4832 50.3027C78.4832 48.5508 77.3633 47.0604 75.8 46.5079C74.4207 38.8136 67.721 33.1842 59.5679 33.1842C56.6714 33.1842 54.0206 34.2893 51.8394 35.6764C51.235 36.0609 50.6527 36.4757 50.0952 36.9105C49.5953 36.688 49.042 36.5642 48.4594 36.5642C47.9137 36.5642 47.3936 36.6727 46.919 36.8695C46.3778 36.4497 45.8131 36.0488 45.2276 35.6764C43.0464 34.2893 40.3957 33.1842 37.4991 33.1842C29.3646 33.1842 22.6766 38.7881 21.2766 46.4557C19.6315 46.9614 18.4356 48.4926 18.4356 50.3027C18.4356 52.2508 19.8207 53.8758 21.6603 54.2472C22.6575 57.8663 24.7328 61.2061 27.4472 64.4739C31.2668 69.0723 36.6701 73.8935 42.8868 79.4403L42.9764 79.5203ZM24.6285 53.6946C26.7717 61.0223 34.3572 67.8024 44.978 77.2791L46.6414 78.7689C47.1873 78.4921 47.8052 78.3362 48.4594 78.3362C49.1513 78.3362 49.8023 78.5106 50.3712 78.8179L52.0891 77.2791C62.6725 67.8355 70.2422 61.0699 72.4157 53.7718C71.2282 53.072 70.4315 51.7805 70.4315 50.3027C70.4315 48.6846 71.3868 47.2898 72.7644 46.6506C71.4882 40.5932 66.141 36.1887 59.5679 36.1887C56.9495 36.1887 54.3957 37.4238 52.1955 39.0862C52.3825 39.5505 52.4852 40.0572 52.4852 40.5885C52.4852 42.8107 50.6827 44.6124 48.4594 44.6124C46.2361 44.6124 44.4336 42.8107 44.4336 40.5885C44.4336 40.0249 44.5495 39.4884 44.7586 39.0014C42.5842 37.382 40.073 36.1887 37.4991 36.1887C30.9023 36.1887 25.5403 40.6251 24.289 46.7162C25.5939 47.3817 26.4873 48.7381 26.4873 50.3027C26.4873 51.7278 25.7464 52.9796 24.6285 53.6946ZM21.0114 49.0694C21.3606 48.6593 21.8807 48.3996 22.4615 48.3996C23.1028 48.3996 23.67 48.7165 24.0151 49.2019C24.2359 49.5126 24.3657 49.8927 24.3657 50.3027C24.3657 51.3538 23.5132 52.2061 22.4615 52.2061C21.4099 52.2061 20.5573 51.3538 20.5573 50.3027C20.5573 49.8321 20.7282 49.4015 21.0114 49.0694ZM50.3635 82.3602C50.3635 82.2878 50.3596 82.2164 50.3517 82.1461C50.3177 81.8435 50.2129 81.5622 50.0541 81.3194C49.7275 80.8211 49.1737 80.4848 48.5395 80.4587L48.5268 80.4579C48.5044 80.4571 48.4821 80.4568 48.4594 80.4568C47.4078 80.4568 46.5553 81.3091 46.5553 82.3602C46.5553 82.4471 46.5611 82.5324 46.5724 82.6162C46.579 82.6662 46.5877 82.716 46.5985 82.7647C46.7839 83.6217 47.5466 84.2635 48.4594 84.2635C49.511 84.2635 50.3635 83.4113 50.3635 82.3602ZM74.4573 52.2061C73.9061 52.2061 73.4097 51.9719 73.062 51.598C73.0123 51.5445 72.9656 51.4881 72.9224 51.4294C72.6902 51.1139 72.5532 50.7244 72.5532 50.3027C72.5532 49.81 72.7405 49.3612 73.0475 49.0233C73.396 48.6401 73.8985 48.3996 74.4573 48.3996C75.0454 48.3996 75.5714 48.6659 75.9206 49.0849C75.9704 49.1447 76.0167 49.2076 76.0591 49.2732C76.2503 49.57 76.3615 49.9235 76.3615 50.3027C76.3615 51.3538 75.509 52.2061 74.4573 52.2061ZM48.4594 38.6851C49.1168 38.6851 49.6962 39.018 50.0383 39.5242C50.2074 39.7741 50.3185 40.0662 50.3525 40.3814C50.3599 40.4494 50.3635 40.5184 50.3635 40.5885C50.3635 41.6395 49.511 42.4915 48.4594 42.4915C47.4078 42.4915 46.5553 41.6395 46.5553 40.5885C46.5553 40.5582 46.5561 40.5281 46.5574 40.4981C46.6045 39.4889 47.4381 38.6851 48.4594 38.6851Z" fill="#211814"/>
<mask id="mask0_226_147" style="mask-type:alpha" maskUnits="userSpaceOnUse" x="24" y="36" width="49" height="43">
<path d="M46.6414 78.7689L44.9782 77.279C34.3575 67.8023 26.772 61.0222 24.6287 53.6946C25.7465 52.9796 26.4876 51.7278 26.4876 50.3027C26.4876 48.738 25.5941 47.3817 24.2892 46.7162C25.5405 40.625 30.9026 36.1886 37.4994 36.1886C40.073 36.1886 42.5845 37.3819 44.7589 39.0014C44.5495 39.4883 44.4336 40.0248 44.4336 40.5884C44.4336 42.8107 46.2361 44.6124 48.4597 44.6124C50.683 44.6124 52.4855 42.8107 52.4855 40.5884C52.4855 40.0572 52.3825 39.5505 52.1955 39.0862C54.3957 37.4238 56.9496 36.1886 59.5682 36.1886C66.1413 36.1886 71.4884 40.5932 72.7647 46.6506C71.387 47.2898 70.4316 48.6846 70.4316 50.3027C70.4316 51.7804 71.2285 53.072 72.416 53.7718C70.2422 61.0699 62.6728 67.8355 52.0894 77.279L50.3715 78.8179C49.8026 78.5105 49.1516 78.3362 48.4597 78.3362C47.8055 78.3362 47.1876 78.4921 46.6414 78.7689Z" fill="#236DF6"/>
</mask>
<g mask="url(#mask0_226_147)">
<path d="M75 35H22V83H75V35Z" fill="#D0064B"/>
<path d="M57 35H38V79H57V35Z" fill="#FCFCFC"/>
</g>
<path d="M38.0272 100.871H42.1515V102.186H36.3917V94.3641H38.0272V100.871ZM44.1613 95.4071C43.8215 95.4071 43.5687 95.336 43.4028 95.1938C43.2368 95.0436 43.1539 94.8264 43.1539 94.5419C43.1539 94.2496 43.2368 94.0323 43.4028 93.8901C43.5687 93.74 43.8215 93.6649 44.1613 93.6649C44.501 93.6649 44.7538 93.74 44.9198 93.8901C45.0857 94.0323 45.1686 94.2496 45.1686 94.5419C45.1686 94.8264 45.0857 95.0436 44.9198 95.1938C44.7538 95.336 44.501 95.4071 44.1613 95.4071ZM44.9672 96.2604V102.186H43.3435V96.2604H44.9672ZM46.6885 102.186V96.2604H48.1463L48.2055 97.327C48.403 96.932 48.6717 96.6357 49.0114 96.4382C49.3591 96.2406 49.7423 96.1419 50.161 96.1419C50.5877 96.1419 50.9709 96.2406 51.3106 96.4382C51.6582 96.6357 51.919 96.928 52.0928 97.3152C52.2192 97.0544 52.3891 96.8372 52.6024 96.6633C52.8157 96.4895 53.0528 96.3592 53.3135 96.2722C53.5742 96.1853 53.8389 96.1419 54.1076 96.1419C54.4947 96.1419 54.8463 96.2209 55.1623 96.3789C55.4863 96.5369 55.7431 96.774 55.9327 97.09C56.1223 97.406 56.2171 97.809 56.2171 98.2988V102.186H54.5935V98.6188C54.5935 98.1843 54.4987 97.8761 54.309 97.6944C54.1194 97.5127 53.8745 97.4218 53.5742 97.4218C53.3372 97.4218 53.116 97.4811 52.9106 97.5996C52.713 97.7181 52.555 97.8959 52.4365 98.1329C52.3259 98.362 52.2706 98.6504 52.2706 98.9981V102.186H50.6469V98.6188C50.6469 98.1843 50.5482 97.8761 50.3506 97.6944C50.161 97.5127 49.9161 97.4218 49.6158 97.4218C49.4104 97.4218 49.205 97.4771 48.9996 97.5878C48.802 97.6984 48.6361 97.8722 48.5018 98.1092C48.3754 98.3462 48.3122 98.6583 48.3122 99.0455V102.186H46.6885ZM61.2695 98.4055C61.2695 98.0658 61.1708 97.8011 60.9733 97.6115C60.7836 97.4218 60.5308 97.327 60.2148 97.327C59.9224 97.327 59.6656 97.4021 59.4444 97.5522C59.2232 97.7023 59.0612 97.9512 58.9585 98.2988L57.5719 97.8722C57.7062 97.3507 57.9985 96.932 58.4489 96.6159C58.9071 96.2999 59.5195 96.1419 60.2859 96.1419C60.8073 96.1419 61.2616 96.2248 61.6488 96.3908C62.0359 96.5488 62.3362 96.7898 62.5495 97.1137C62.7707 97.4376 62.8813 97.8445 62.8813 98.3344V100.74C62.8813 101.04 63.0236 101.191 63.308 101.191C63.4423 101.191 63.5687 101.171 63.6872 101.131L63.5924 102.139C63.387 102.241 63.1302 102.293 62.8221 102.293C62.5456 102.293 62.2967 102.245 62.0754 102.151C61.8542 102.056 61.6804 101.914 61.554 101.724C61.4276 101.526 61.3644 101.281 61.3644 100.989V100.942L61.6488 100.894C61.6014 101.195 61.471 101.451 61.2577 101.665C61.0444 101.87 60.7836 102.028 60.4755 102.139C60.1753 102.249 59.8632 102.305 59.5392 102.305C59.1363 102.305 58.7886 102.245 58.4963 102.127C58.204 102 57.9788 101.819 57.8208 101.582C57.6627 101.345 57.5837 101.052 57.5837 100.705C57.5837 100.262 57.7259 99.9027 58.0104 99.6262C58.2948 99.3418 58.7017 99.1482 59.2311 99.0455L61.4592 98.5951L61.4473 99.6025L60.0251 99.8869C59.7565 99.9422 59.5511 100.017 59.4089 100.112C59.2745 100.199 59.2074 100.345 59.2074 100.551C59.2074 100.748 59.2785 100.898 59.4207 101.001C59.5708 101.104 59.7486 101.155 59.954 101.155C60.1199 101.155 60.2819 101.135 60.4399 101.096C60.598 101.056 60.7402 100.993 60.8666 100.906C60.993 100.819 61.0918 100.701 61.1629 100.551C61.234 100.401 61.2695 100.219 61.2695 100.005V98.4055ZM65.6185 100.373C65.8713 100.373 66.0807 100.436 66.2466 100.562C66.4126 100.681 66.539 100.843 66.6259 101.048C66.7128 101.246 66.7563 101.467 66.7563 101.712C66.7563 102.036 66.6891 102.348 66.5548 102.648C66.4284 102.949 66.2506 103.217 66.0215 103.454C65.7923 103.691 65.5316 103.877 65.2393 104.011L64.5282 103.454C64.7494 103.367 64.9469 103.261 65.1207 103.134C65.3025 103.008 65.4565 102.866 65.583 102.708C65.7094 102.55 65.8002 102.388 65.8555 102.222L65.7963 102.186C65.7568 102.21 65.7094 102.23 65.6541 102.245C65.5988 102.269 65.5197 102.281 65.417 102.281C65.2906 102.281 65.1642 102.249 65.0378 102.186C64.9114 102.115 64.8047 102.016 64.7178 101.89C64.6309 101.756 64.5874 101.59 64.5874 101.392C64.5874 101.179 64.6348 100.997 64.7296 100.847C64.8245 100.697 64.9509 100.582 65.1089 100.503C65.2669 100.416 65.4368 100.373 65.6185 100.373ZM75.229 94.3641C75.8295 94.3641 76.343 94.4669 76.7697 94.6723C77.1964 94.8698 77.5242 95.1582 77.7534 95.5374C77.9904 95.9088 78.1089 96.3592 78.1089 96.8885C78.1089 97.4179 77.9904 97.8722 77.7534 98.2514C77.5242 98.6228 77.1964 98.9112 76.7697 99.1166C76.343 99.3141 75.8295 99.4129 75.229 99.4129H73.5817V102.186H71.9461V94.3641H75.229ZM74.9801 98.1211C75.47 98.1211 75.8374 98.0184 76.0823 97.8129C76.3272 97.5996 76.4497 97.2915 76.4497 96.8885C76.4497 96.4777 76.3272 96.1695 76.0823 95.9641C75.8374 95.7587 75.47 95.656 74.9801 95.656H73.5817V98.1211H74.9801ZM82.0412 102.305C81.4171 102.305 80.8719 102.182 80.4057 101.937C79.9475 101.692 79.5919 101.341 79.3391 100.882C79.0863 100.424 78.9599 99.8711 78.9599 99.2233C78.9599 98.5754 79.0863 98.0223 79.3391 97.5641C79.5919 97.1058 79.9435 96.7542 80.3939 96.5093C80.8521 96.2643 81.3736 96.1419 81.9583 96.1419C82.5588 96.1419 83.0684 96.2643 83.4871 96.5093C83.9059 96.7463 84.2259 97.0742 84.4471 97.4929C84.6683 97.9038 84.7789 98.3739 84.7789 98.9033C84.7789 99.0613 84.775 99.2114 84.7671 99.3536C84.7592 99.4958 84.7473 99.6223 84.7315 99.7329H80.0028V98.607H84.0204L83.2382 98.8914C83.2382 98.3937 83.1237 98.0105 82.8945 97.7418C82.6733 97.4732 82.3573 97.3389 81.9464 97.3389C81.6462 97.3389 81.3855 97.41 81.1642 97.5522C80.9509 97.6944 80.7889 97.9077 80.6783 98.1922C80.5677 98.4687 80.5124 98.8203 80.5124 99.247C80.5124 99.6657 80.5717 100.013 80.6902 100.29C80.8166 100.559 80.9904 100.76 81.2116 100.894C81.4408 101.029 81.7134 101.096 82.0294 101.096C82.377 101.096 82.6575 101.029 82.8708 100.894C83.0842 100.76 83.2501 100.574 83.3686 100.337L84.6604 100.835C84.534 101.143 84.3404 101.408 84.0797 101.629C83.8269 101.85 83.5227 102.02 83.1671 102.139C82.8195 102.249 82.4442 102.305 82.0412 102.305ZM86.1548 102.186V96.2604H87.5651L87.6718 97.4218C87.8298 97.011 88.0589 96.6949 88.3591 96.4737C88.6673 96.2525 89.0505 96.1419 89.5087 96.1419C89.643 96.1419 89.7655 96.1537 89.8761 96.1774C89.9867 96.2011 90.0776 96.2327 90.1487 96.2722L89.9591 97.6352C89.8801 97.6036 89.7813 97.5799 89.6628 97.5641C89.5522 97.5483 89.406 97.5403 89.2243 97.5403C88.9873 97.5403 88.7581 97.5996 88.5369 97.7181C88.3157 97.8287 88.134 98.0026 87.9917 98.2396C87.8495 98.4687 87.7784 98.7611 87.7784 99.1166V102.186H86.1548ZM93.2169 102.305C92.8219 102.305 92.4663 102.234 92.1503 102.091C91.8343 101.949 91.5814 101.724 91.3918 101.416C91.2101 101.1 91.1192 100.693 91.1192 100.195V96.2604H92.7429V99.804C92.7429 100.262 92.8377 100.582 93.0273 100.764C93.2169 100.938 93.4895 101.025 93.8451 101.025C94.011 101.025 94.173 100.997 94.331 100.942C94.489 100.879 94.6273 100.784 94.7458 100.657C94.8722 100.531 94.9709 100.369 95.0421 100.171C95.1132 99.966 95.1487 99.725 95.1487 99.4484V96.2604H96.7724V102.186H95.3265L95.2672 101.155C95.0697 101.55 94.7971 101.842 94.4495 102.032C94.1097 102.214 93.6989 102.305 93.2169 102.305ZM93.9517 93.4634H95.5161L94.331 95.4782H93.134L93.9517 93.4634Z" fill="#211814"/>
</g>
<defs>
<clipPath id="clip0_226_147">
<rect width="133" height="133" fill="white"/>
</clipPath>
</defs>
</svg>
