<?xml version="1.0" encoding="UTF-8"?>
<svg id="Layer_2" data-name="Layer 2" xmlns="http://www.w3.org/2000/svg" viewBox="0 0 1288.79 177.6">
  <defs>
    <style>
      .cls-1 {
        fill: #e9a1c9;
      }

      .cls-2 {
        fill: #f2f2ef;
      }
    </style>
  </defs>
  <g id="Layer_1-2" data-name="Layer 1">
    <g>
      <path class="cls-1" d="M12.68,152.22v25.37H0v-25.37h12.68ZM25.37,126.85v25.37h-12.69v-25.37h12.69ZM88.8,164.91v-12.69h12.68v-25.37h-12.68v-12.69h-12.69v-12.69h-12.69v-12.69h-12.69v-12.69h-12.69v-12.69h-12.69V25.37h12.69v-12.69h12.69V0h50.74v12.69h-38.06v12.69h-12.69v25.37h12.69v12.69h12.69v12.69h12.69v12.69h12.68v12.69h12.69v12.69h12.69v38.06h-12.69v12.69h-12.69v12.69h-63.43v-12.69h50.74ZM38.06,152.22v12.69h-12.69v-12.69h12.69ZM114.17,12.69v12.69h-12.69v-12.69h12.69ZM126.85,25.37v25.37h-12.69v-25.37h12.69ZM139.54,0v25.37h-12.69V0h12.69Z"/>
      <path class="cls-2" d="M182.66,164.91V12.69h-12.69V0h50.74v12.69h-12.68v76.11h76.11V12.69h-12.69V0h50.74v12.69h-12.69v152.22h12.69v12.69h-50.74v-12.69h12.69v-63.43h-76.11v63.43h12.68v12.69h-50.74v-12.69h12.69Z"/>
      <path class="cls-2" d="M365.33,164.91V12.69h-12.68V0h114.17v25.37h-12.69v-12.69h-63.43v76.11h50.74v-12.69h12.68v38.06h-12.68v-12.69h-50.74v63.43h63.43v-12.69h12.69v25.37h-114.17v-12.69h12.68ZM479.5,25.37v12.69h-12.69v-12.69h12.69ZM479.5,126.85v25.37h-12.69v-25.37h12.69Z"/>
      <path class="cls-2" d="M667.23,164.91v-12.69h12.69v-25.37h-12.69v-12.69h-25.37v-12.69h-25.37v-12.69h-25.37v-12.69h-12.69V25.37h12.69v-12.69h12.69V0h63.43v12.69h-50.74v12.69h-12.69v38.06h25.37v12.69h25.37v12.69h12.69v12.69h25.37v12.69h12.69v38.06h-12.69v12.69h-12.69v12.69h-63.43v-12.69h50.74ZM603.81,139.54v12.69h-12.69v25.37h-12.69v-50.74h12.69v12.68h12.69ZM616.49,152.22v12.69h-12.69v-12.69h12.69ZM679.92,12.69v12.69h-12.69v-12.69h12.69ZM679.92,38.06v-12.69h12.69V0h12.69v50.74h-12.69v-12.69h-12.69Z"/>
      <path class="cls-1" d="M728.12,164.91v-25.37h12.69v-38.06h12.68v-50.74h12.69V12.69h-12.69V0h50.74v12.69h-12.69v38.06h-12.69v38.06h76.11v-38.06h12.69V12.69h-12.69V0h50.74v12.69h-12.68v38.06h-12.69v50.74h-12.69v38.06h-12.69v25.37h12.69v12.69h-50.74v-12.69h12.68v-25.37h12.69v-38.06h-76.11v38.06h-12.69v25.37h12.69v12.69h-50.74v-12.69h12.69Z"/>
      <path class="cls-2" d="M936.15,164.91V12.69h-12.69V0h50.74v12.69h-12.69v152.22h12.69v12.69h-50.74v-12.69h12.69Z"/>
      <path class="cls-2" d="M1017.33,164.91V12.69h-12.69V0h101.48v12.69h12.68v12.69h12.69v50.74h-12.69v12.69h-25.37v-12.69h12.69V25.37h-12.69v-12.69h-50.74v88.8h25.37v12.69h-25.37v50.74h25.37v12.69h-63.43v-12.69h12.69ZM1093.44,88.8v12.69h-25.37v-12.69h25.37Z"/>
      <path class="cls-2" d="M1250.74,164.91v-12.69h12.69v-25.37h-12.69v-12.69h-25.37v-12.69h-25.37v-12.69h-25.37v-12.69h-12.69V25.37h12.69v-12.69h12.69V0h63.43v12.69h-50.74v12.69h-12.68v38.06h25.37v12.69h25.37v12.69h12.69v12.69h25.37v12.69h12.69v38.06h-12.69v12.69h-12.68v12.69h-63.43v-12.69h50.74ZM1187.31,139.54v12.69h-12.69v25.37h-12.69v-50.74h12.69v12.68h12.69ZM1200,152.22v12.69h-12.68v-12.69h12.68ZM1263.42,12.69v12.69h-12.69v-12.69h12.69ZM1263.42,38.06v-12.69h12.68V0h12.69v50.74h-12.69v-12.69h-12.68Z"/>
    </g>
  </g>
</svg>