<?xml version="1.0" encoding="UTF-8"?>
<svg id="Layer_2" data-name="Layer 2" xmlns="http://www.w3.org/2000/svg" viewBox="0 0 479.5 177.6">
  <defs>
    <style>
      .cls-1 {
        fill: #e9a1c9;
      }

      .cls-2 {
        fill: #f2f2ef;
      }
    </style>
  </defs>
  <g id="Layer_1-2" data-name="Layer 1">
    <g>
      <path class="cls-1" d="M12.69,152.22v25.37H0v-25.37h12.69ZM25.37,126.85v25.37h-12.69v-25.37h12.69ZM88.8,164.91v-12.69h12.68v-25.37h-12.68v-12.69h-12.69v-12.69h-12.69v-12.69h-12.69v-12.69h-12.68v-12.68h-12.69V25.37h12.69v-12.69h12.68V0h50.74v12.69h-38.06v12.69h-12.69v25.37h12.69v12.69h12.69v12.68h12.69v12.69h12.68v12.69h12.69v12.69h12.69v38.06h-12.69v12.69h-12.69v12.69h-63.43v-12.69h50.74ZM38.06,152.22v12.69h-12.69v-12.69h12.69ZM114.17,12.69v12.69h-12.69v-12.69h12.69ZM126.85,25.37v25.37h-12.69v-25.37h12.69ZM139.54,0v25.37h-12.69V0h12.69Z"/>
      <path class="cls-2" d="M182.66,164.91V12.69h-12.69V0h50.74v12.69h-12.69v76.11h76.11V12.69h-12.69V0h50.74v12.69h-12.68v152.22h12.68v12.69h-50.74v-12.69h12.69v-63.43h-76.11v63.43h12.69v12.69h-50.74v-12.69h12.69Z"/>
      <path class="cls-2" d="M365.33,164.91V12.69h-12.69V0h114.17v25.37h-12.68v-12.69h-63.43v76.11h50.74v-12.69h12.69v38.06h-12.69v-12.69h-50.74v63.43h63.43v-12.69h12.68v25.37h-114.17v-12.69h12.69ZM479.5,25.37v12.69h-12.69v-12.69h12.69ZM479.5,126.85v25.37h-12.69v-25.37h12.69Z"/>
    </g>
  </g>
</svg>