<?xml version="1.0" encoding="UTF-8"?>
<svg id="Layer_2" data-name="Layer 2" xmlns="http://www.w3.org/2000/svg" viewBox="0 0 710.36 177.6">
  <defs>
    <style>
      .cls-1 {
        fill: #e9a1c9;
      }

      .cls-2 {
        fill: #f2f2ef;
      }
    </style>
  </defs>
  <g id="Layer_1-2" data-name="Layer 1">
    <g>
      <path class="cls-2" d="M88.8,164.91v-12.69h12.69v-25.37h-12.69v-12.69h-25.37v-12.69h-25.37v-12.69H12.68v-12.69H0V25.37h12.68v-12.69h12.69V0h63.43v12.69h-50.74v12.69h-12.69v38.06h25.37v12.69h25.37v12.69h12.69v12.69h25.37v12.69h12.69v38.06h-12.69v12.69h-12.69v12.69h-63.43v-12.69h50.74ZM25.37,139.54v12.69h-12.69v25.37H0v-50.74h12.68v12.68h12.69ZM38.06,152.22v12.69h-12.69v-12.69h12.69ZM101.48,12.69v12.69h-12.69v-12.69h12.69ZM101.48,38.06v-12.69h12.69V0h12.69v50.74h-12.69v-12.69h-12.69Z"/>
      <path class="cls-1" d="M149.68,164.91v-25.37h12.69v-38.06h12.69v-50.74h12.68V12.69h-12.68V0h50.74v12.69h-12.69v38.06h-12.69v38.06h76.11v-38.06h12.69V12.69h-12.69V0h50.74v12.69h-12.69v38.06h-12.69v50.74h-12.69v38.06h-12.69v25.37h12.69v12.69h-50.74v-12.69h12.69v-25.37h12.69v-38.06h-76.11v38.06h-12.68v25.37h12.68v12.69h-50.74v-12.69h12.69Z"/>
      <path class="cls-2" d="M357.71,164.91V12.69h-12.68V0h50.74v12.69h-12.69v152.22h12.69v12.69h-50.74v-12.69h12.68Z"/>
      <path class="cls-2" d="M438.9,164.91V12.69h-12.69V0h101.48v12.69h12.68v12.69h12.69v50.74h-12.69v12.69h-25.37v-12.69h12.69V25.37h-12.69v-12.69h-50.74v88.8h25.37v12.69h-25.37v50.74h25.37v12.69h-63.43v-12.69h12.69ZM515.01,88.8v12.69h-25.37v-12.69h25.37Z"/>
      <path class="cls-2" d="M672.3,164.91v-12.69h12.69v-25.37h-12.69v-12.69h-25.37v-12.69h-25.37v-12.69h-25.37v-12.69h-12.69V25.37h12.69v-12.69h12.69V0h63.43v12.69h-50.74v12.69h-12.68v38.06h25.37v12.69h25.37v12.69h12.69v12.69h25.37v12.69h12.69v38.06h-12.69v12.69h-12.68v12.69h-63.43v-12.69h50.74ZM608.87,139.54v12.69h-12.69v25.37h-12.69v-50.74h12.69v12.68h12.69ZM621.56,152.22v12.69h-12.68v-12.69h12.68ZM684.99,12.69v12.69h-12.69v-12.69h12.69ZM684.99,38.06v-12.69h12.68V0h12.69v50.74h-12.69v-12.69h-12.68Z"/>
    </g>
  </g>
</svg>