<svg width="707" height="96" viewBox="0 0 707 96" fill="none" xmlns="http://www.w3.org/2000/svg">
<path d="M34.7718 13.6653C32.7175 12.2339 29.2082 10.55 26.8971 9.87636C21.6759 8.27657 17.5551 9.17712 14.8283 10.129C9.52151 11.9813 6.18334 14.4231 3.18755 18.8857C-1.52013 25.79 -0.835381 36.9885 4.89943 43.3035C6.18334 44.8191 6.86809 44.5665 11.8326 40.9459C12.0037 40.7775 11.319 39.6829 10.2919 38.4199C7.98082 35.5571 6.61131 30.3368 7.29606 27.3898C9.52151 18.1279 20.9055 13.1601 28.2666 18.2121C29.8929 19.3067 35.0286 23.8534 39.6506 28.316C46.5838 34.8835 48.638 36.3991 50.3499 36.2307C52.0618 36.0623 52.6609 35.4729 52.8321 33.6206C53.0889 31.5998 52.3186 30.421 48.3812 26.8846C45.7278 24.4428 43.588 22.2537 43.588 21.8327C43.588 21.4959 45.3854 20.0645 47.6109 18.7173C61.9907 9.70797 77.4832 27.6424 65.5001 39.4303C63.9594 40.9459 61.2204 42.5457 59.4229 43.0509C57.3686 43.5561 47.8677 43.9771 36.0557 43.9771C13.9724 43.9771 12.7741 44.2297 6.95368 49.3658C-0.493008 56.0176 -2.20489 67.3845 3.01635 75.636C9.77829 86.4135 24.3293 89.1079 34.6006 81.4458L38.3667 78.583L42.732 81.4458C49.8363 86.1609 55.5712 87.0871 62.5043 84.8137C76.3705 80.1828 81.5062 62.8377 72.5188 51.2182C71.4917 49.9552 70.9781 49.871 69.6086 50.5446C65.4145 52.9022 65.5001 52.7338 67.9823 57.7858C69.8654 61.6589 70.2077 63.1745 69.7798 66.1215C68.5815 73.531 62.9322 78.4988 55.7423 78.4988C50.1787 78.4988 48.3812 77.4042 38.11 67.5529C32.7175 62.5009 27.7531 58.291 27.0683 58.291C25.7844 58.291 23.0454 60.9011 23.0454 62.1641C23.0454 62.5009 25.3564 65.1953 28.2666 68.0581L33.4879 73.1942L30.4065 75.5518C19.536 83.7191 4.04349 73.952 7.63844 61.1537C8.75116 57.2806 12.6885 52.9864 16.4546 51.6392C17.9097 51.0498 26.8971 50.713 39.0515 50.713C61.3915 50.713 64.045 50.292 69.1806 45.9137C84.502 33.1154 75.6002 9.03437 55.5711 9.11857C49.7507 9.11857 46.5838 10.2974 41.1913 14.2547L38.4523 16.2755L34.7718 13.6653Z" fill="#F8BB2D"/>
<path d="M142.046 75.184C137.211 75.184 132.895 74.0987 129.096 71.928C125.347 69.7573 122.387 66.6493 120.216 62.604C118.095 58.5093 117.034 53.576 117.034 47.804C117.034 42.2293 118.07 37.3947 120.142 33.3C122.214 29.156 125.125 25.9493 128.874 23.68C132.673 21.4107 137.137 20.276 142.268 20.276C149.323 20.276 154.799 22.0027 158.696 25.456C162.643 28.9093 165.183 33.8673 166.318 40.33L152.924 40.848C152.381 37.6907 151.197 35.224 149.372 33.448C147.547 31.672 145.179 30.784 142.268 30.784C138.371 30.784 135.386 32.3627 133.314 35.52C131.291 38.628 130.28 42.7227 130.28 47.804C130.28 52.984 131.341 57.1033 133.462 60.162C135.583 63.1713 138.494 64.676 142.194 64.676C145.401 64.676 147.867 63.7387 149.594 61.864C151.37 59.9893 152.505 57.35 152.998 53.946L166.466 54.464C165.331 61.0747 162.717 66.1807 158.622 69.782C154.577 73.3833 149.051 75.184 142.046 75.184ZM175.15 74V34.188H187.36L187.656 42.328C188.445 39.4667 189.605 37.3947 191.134 36.112C192.713 34.8293 194.711 34.188 197.128 34.188H200.606V44.474H197.054C193.897 44.474 191.578 45.0413 190.098 46.176C188.618 47.3107 187.878 49.3087 187.878 52.17V74H175.15ZM219.787 74.888C215.594 74.888 212.165 73.9507 209.501 72.076C206.886 70.152 205.579 67.4633 205.579 64.01C205.579 60.5073 206.714 57.794 208.983 55.87C211.252 53.946 214.558 52.54 218.899 51.652L231.257 49.136C231.257 44.4 229.308 42.032 225.411 42.032C221.711 42.032 219.565 43.7833 218.973 47.286L206.245 46.842C207.034 42.254 209.082 38.85 212.387 36.63C215.692 34.41 220.034 33.3 225.411 33.3C237.794 33.3 243.985 38.8993 243.985 50.098V62.678C243.985 63.9113 244.182 64.7253 244.577 65.12C245.021 65.5147 245.613 65.712 246.353 65.712H247.315V74C246.92 74.148 246.279 74.2713 245.391 74.37C244.503 74.4687 243.64 74.518 242.801 74.518C241.518 74.518 240.236 74.3453 238.953 74C237.67 73.6053 236.56 72.9393 235.623 72.002C234.686 71.0153 234.044 69.6587 233.699 67.932C232.663 70.0533 230.986 71.7553 228.667 73.038C226.348 74.2713 223.388 74.888 219.787 74.888ZM223.117 66.6C225.485 66.6 227.434 65.8847 228.963 64.454C230.492 63.0233 231.257 60.9513 231.257 58.238V56.61L223.561 58.386C220.305 59.0767 218.677 60.5567 218.677 62.826C218.677 65.342 220.157 66.6 223.117 66.6ZM257.38 74V45.436H251.46V36.186H257.38V34.632C257.38 30.3893 258.514 27.1333 260.784 24.864C263.053 22.5947 266.58 21.46 271.366 21.46H280.542V30.636H274.474C272.895 30.636 271.785 31.0307 271.144 31.82C270.502 32.56 270.182 33.6947 270.182 35.224V36.186H280.024V45.436H270.182V74H257.38ZM304.847 74C300.555 74 297.398 73.0133 295.375 71.04C293.402 69.0173 292.415 65.8107 292.415 61.42V43.364H285.829V34.188H292.415V24.864H305.143V34.188H315.577V43.364H305.143V59.792C305.143 61.716 305.538 63.048 306.327 63.788C307.166 64.4787 308.424 64.824 310.101 64.824H315.577V74H304.847ZM341.863 74.888C337.719 74.888 334.093 74.0247 330.985 72.298C327.877 70.5713 325.46 68.154 323.733 65.046C322.007 61.938 321.143 58.2873 321.143 54.094C321.143 49.95 322.007 46.324 323.733 43.216C325.46 40.0587 327.853 37.6167 330.911 35.89C334.019 34.1633 337.645 33.3 341.789 33.3C345.933 33.3 349.51 34.188 352.519 35.964C355.529 37.6907 357.847 40.182 359.475 43.438C361.153 46.694 361.991 50.5667 361.991 55.056V57.424H334.315C334.414 60.1867 335.154 62.2587 336.535 63.64C337.966 64.972 339.816 65.638 342.085 65.638C343.763 65.638 345.169 65.3173 346.303 64.676C347.438 63.9853 348.252 62.8753 348.745 61.346L361.473 62.086C360.339 66.23 358.02 69.412 354.517 71.632C351.064 73.8027 346.846 74.888 341.863 74.888ZM334.315 50.172H349.115C349.017 47.5573 348.301 45.6087 346.969 44.326C345.637 42.994 343.911 42.328 341.789 42.328C339.717 42.328 338.015 43.0187 336.683 44.4C335.351 45.7813 334.562 47.7053 334.315 50.172ZM370.527 74V34.188H382.737L383.033 42.328C383.823 39.4667 384.982 37.3947 386.511 36.112C388.09 34.8293 390.088 34.188 392.505 34.188H395.983V44.474H392.431C389.274 44.474 386.955 45.0413 385.475 46.176C383.995 47.3107 383.255 49.3087 383.255 52.17V74H370.527ZM446.091 75.184C439.086 75.184 433.61 73.5067 429.663 70.152C425.717 66.748 423.546 62.2093 423.151 56.536L436.027 55.944C436.422 58.8053 437.433 61.0007 439.061 62.53C440.739 64.0593 443.131 64.824 446.239 64.824C448.755 64.824 450.679 64.38 452.011 63.492C453.393 62.604 454.083 61.272 454.083 59.496C454.083 58.4107 453.812 57.4733 453.269 56.684C452.776 55.8453 451.765 55.1053 450.235 54.464C448.755 53.7733 446.511 53.1073 443.501 52.466C438.864 51.4793 435.115 50.3447 432.253 49.062C429.441 47.73 427.369 46.0773 426.037 44.104C424.755 42.0813 424.113 39.516 424.113 36.408C424.113 33.2013 424.927 30.3893 426.555 27.972C428.183 25.5547 430.527 23.68 433.585 22.348C436.644 20.9667 440.295 20.276 444.537 20.276C449.076 20.276 452.875 21.0653 455.933 22.644C459.041 24.1733 461.434 26.2947 463.111 29.008C464.838 31.7213 465.899 34.854 466.293 38.406L453.565 38.998C453.319 36.4327 452.406 34.41 450.827 32.93C449.249 31.4007 447.103 30.636 444.389 30.636C442.12 30.636 440.319 31.1293 438.987 32.116C437.705 33.1027 437.063 34.3853 437.063 35.964C437.063 37.7893 437.754 39.1707 439.135 40.108C440.566 41.0453 443.205 41.884 447.053 42.624C452.085 43.5613 456.057 44.7947 458.967 46.324C461.878 47.804 463.95 49.6047 465.183 51.726C466.417 53.798 467.033 56.1907 467.033 58.904C467.033 63.936 465.159 67.9073 461.409 70.818C457.709 73.7287 452.603 75.184 446.091 75.184ZM493.142 74C488.85 74 485.693 73.0133 483.67 71.04C481.697 69.0173 480.71 65.8107 480.71 61.42V43.364H474.124V34.188H480.71V24.864H493.438V34.188H503.872V43.364H493.438V59.792C493.438 61.716 493.833 63.048 494.622 63.788C495.461 64.4787 496.719 64.824 498.396 64.824H503.872V74H493.142ZM524.08 74.888C519.887 74.888 516.458 73.9507 513.794 72.076C511.18 70.152 509.872 67.4633 509.872 64.01C509.872 60.5073 511.007 57.794 513.276 55.87C515.546 53.946 518.851 52.54 523.192 51.652L535.55 49.136C535.55 44.4 533.602 42.032 529.704 42.032C526.004 42.032 523.858 43.7833 523.266 47.286L510.538 46.842C511.328 42.254 513.375 38.85 516.68 36.63C519.986 34.41 524.327 33.3 529.704 33.3C542.087 33.3 548.278 38.8993 548.278 50.098V62.678C548.278 63.9113 548.476 64.7253 548.87 65.12C549.314 65.5147 549.906 65.712 550.646 65.712H551.608V74C551.214 74.148 550.572 74.2713 549.684 74.37C548.796 74.4687 547.933 74.518 547.094 74.518C545.812 74.518 544.529 74.3453 543.246 74C541.964 73.6053 540.854 72.9393 539.916 72.002C538.979 71.0153 538.338 69.6587 537.992 67.932C536.956 70.0533 535.279 71.7553 532.96 73.038C530.642 74.2713 527.682 74.888 524.08 74.888ZM527.41 66.6C529.778 66.6 531.727 65.8847 533.256 64.454C534.786 63.0233 535.55 60.9513 535.55 58.238V56.61L527.854 58.386C524.598 59.0767 522.97 60.5567 522.97 62.826C522.97 65.342 524.45 66.6 527.41 66.6ZM574.256 74C569.964 74 566.807 73.0133 564.784 71.04C562.811 69.0173 561.824 65.8107 561.824 61.42V43.364H555.238V34.188H561.824V24.864H574.552V34.188H584.986V43.364H574.552V59.792C574.552 61.716 574.947 63.048 575.736 63.788C576.575 64.4787 577.833 64.824 579.51 64.824H584.986V74H574.256ZM593.201 74V34.188H605.929V74H593.201ZM592.979 29.748V20.276H606.151V29.748H592.979ZM635.394 74.888C631.151 74.888 627.476 74.0247 624.368 72.298C621.26 70.5713 618.818 68.154 617.042 65.046C615.315 61.938 614.452 58.2873 614.452 54.094C614.452 49.9007 615.315 46.25 617.042 43.142C618.818 40.034 621.26 37.6167 624.368 35.89C627.476 34.1633 631.151 33.3 635.394 33.3C639.587 33.3 643.238 34.1633 646.346 35.89C649.454 37.6167 651.871 40.034 653.598 43.142C655.374 46.25 656.262 49.9007 656.262 54.094C656.262 58.2873 655.374 61.938 653.598 65.046C651.871 68.154 649.454 70.5713 646.346 72.298C643.238 74.0247 639.587 74.888 635.394 74.888ZM635.394 65.49C637.861 65.49 639.76 64.5033 641.092 62.53C642.473 60.5567 643.164 57.7447 643.164 54.094C643.164 50.4927 642.473 47.7053 641.092 45.732C639.76 43.7093 637.861 42.698 635.394 42.698C632.878 42.698 630.929 43.7093 629.548 45.732C628.216 47.7053 627.55 50.4927 627.55 54.094C627.55 57.7447 628.216 60.5567 629.548 62.53C630.929 64.5033 632.878 65.49 635.394 65.49ZM664.776 74V34.188H676.172L676.468 40.552C677.553 37.9373 679.107 36.0873 681.13 35.002C683.202 33.8673 685.52 33.3 688.086 33.3C692.328 33.3 695.658 34.632 698.076 37.296C700.493 39.96 701.702 43.66 701.702 48.396V74H688.974V52.762C688.974 49.7033 688.604 47.36 687.864 45.732C687.173 44.0547 685.767 43.216 683.646 43.216C681.574 43.216 680.02 44.0547 678.984 45.732C677.997 47.36 677.504 49.7033 677.504 52.762V74H664.776Z" fill="white"/>
</svg>
