<svg width="1275" height="536" viewBox="0 0 1275 536" fill="none" xmlns="http://www.w3.org/2000/svg">
<path d="M144.339 105.073L144.275 105.009L144.21 105.073L129.648 104.474L21.1369 99.9552C9.61545 99.4841 0 106.765 0 116.231V142.25C0 151.737 9.61545 158.997 21.1369 158.505L90.8649 155.506L28.8249 214.206C20.9013 221.701 20.9013 232.237 28.8249 237.505L49.662 251.318C56.9432 256.137 68.4217 253.931 75.296 246.585L129.648 188.7V241.981C129.648 249.734 136.115 254.616 143.889 252.924L164.191 248.513C171.236 246.971 176.804 239.99 176.804 232.858V119.336C176.804 112.205 171.215 106.187 164.191 105.887L144.317 105.052L144.339 105.073Z" fill="#864DF1" style="fill:#864DF1;fill:color(display-p3 0.5255 0.3020 0.9451);fill-opacity:1;"/>
<path opacity="0.5" d="M159.457 152.4L159.521 152.464L159.585 152.4L173.355 151.822L245.096 148.845C250.536 148.61 254.861 143.342 254.861 137.067V119.828C254.861 113.553 250.536 108.263 245.096 108.049L204.279 106.293L241.306 68.0884C245.225 64.0409 245.225 56.6955 241.306 51.5558L230.213 36.972C226.037 31.4897 219.141 30.162 214.794 34.1238L173.376 71.9003V21.3603C173.376 13.9934 167.423 6.73366 159.928 5.1061L138.213 0.373332C129.903 -1.44696 122.986 3.56421 122.986 11.5949V139.38C122.986 147.41 129.903 153.621 138.213 153.278L159.457 152.4Z" fill="#864DF1" style="fill:#864DF1;fill:color(display-p3 0.5255 0.3020 0.9451);fill-opacity:1;"/>
<path d="M224.173 196.707H291.931V369.335H319.856L378.919 279.134H461.797L380.29 395.89L475.074 530.956H389.456L319.856 428.848H291.931V530.956H224.173V196.707Z" fill="#F7F7F7" style="fill:#F7F7F7;fill:color(display-p3 0.9686 0.9686 0.9686);fill-opacity:1;"/>
<path d="M446.704 404.584C446.704 320.786 492.49 274.551 573.996 274.551C649.999 274.551 693.965 314.383 696.706 383.062C697.156 399.08 696.256 412.358 695.335 421.973H516.304C520.415 460.885 540.567 480.116 577.658 480.116C604.663 480.116 621.153 469.58 627.577 449.899H693.515C682.058 506.221 642.225 535.517 576.759 535.517C492.961 535.517 446.726 488.81 446.726 404.563L446.704 404.584ZM632.16 381.242C630.79 349.183 609.717 329.502 574.917 329.502C542.409 329.502 522.728 346.913 517.225 381.242H632.16Z" fill="#F7F7F7" style="fill:#F7F7F7;fill:color(display-p3 0.9686 0.9686 0.9686);fill-opacity:1;"/>
<path d="M725.182 201.293H792.94V299.289C810.35 285.562 833.693 274.555 865.751 274.555C942.225 274.555 984.349 321.261 984.349 404.588C984.349 487.915 944.046 535.542 868.514 535.542C833.264 535.542 807.609 524.085 786.558 504.854L777.863 530.959H725.203V201.293H725.182ZM792.94 445.341C809.429 466.414 831.401 476.029 855.215 476.029C895.968 476.029 915.649 452.687 915.649 404.609C915.649 356.532 894.127 334.089 852.924 334.089C829.11 334.089 810.35 342.784 792.94 364.777V445.363V445.341Z" fill="#F7F7F7" style="fill:#F7F7F7;fill:color(display-p3 0.9686 0.9686 0.9686);fill-opacity:1;"/>
<path d="M1142.29 274.551C1227.46 274.551 1274.61 320.808 1274.61 404.584C1274.61 488.361 1227.46 535.539 1142.29 535.539C1057.12 535.539 1009.04 489.282 1009.04 404.584C1009.04 319.887 1056.2 274.551 1142.29 274.551ZM1141.84 475.554C1184.88 475.554 1205.48 452.661 1205.48 404.584C1205.48 356.507 1184.41 333.614 1141.84 333.614C1099.26 333.614 1077.74 356.957 1077.74 404.584C1077.74 452.212 1098.34 475.554 1141.84 475.554Z" fill="#F7F7F7" style="fill:#F7F7F7;fill:color(display-p3 0.9686 0.9686 0.9686);fill-opacity:1;"/>
</svg>
