<svg width="762" height="174" viewBox="0 0 762 174" fill="none" xmlns="http://www.w3.org/2000/svg">
<g clip-path="url(#clip0_80_447)">
<path d="M0.00676314 123.754L1.74627 78.9075L1.10608 60.0913C0.866816 54.4263 5.61974 49.8762 11.2456 50.0965C16.4189 50.2975 20.6804 54.4393 20.7838 59.6375L21.0683 72.024L22.2841 72.0694C25.7437 57.5375 36.3682 50.7706 48.7 51.2503C62.7001 51.7947 69.4964 61.3811 70.1172 76.6843L71.029 76.7232C74.2881 59.4366 83.5547 52.4623 96.947 52.9809C113.534 53.629 119.987 64.1164 119.27 82.5761L117.491 128.343C117.265 134.138 112.518 138.688 106.582 138.461C100.801 138.234 96.2615 133.321 96.4878 127.526L98.0204 88.0142C98.2726 81.4548 95.4532 75.6926 87.2342 75.3685C77.7995 74.9991 71.1842 80.3983 70.8867 88.1763L69.3994 126.463C69.1731 132.258 64.4266 136.808 58.4903 136.581C52.7092 136.354 48.1697 131.441 48.396 125.647L49.9286 86.1345C50.1808 79.5751 47.051 73.8 38.8385 73.4824C29.4037 73.1129 22.7885 78.5121 22.4845 86.4392L21.0037 124.577C20.7774 130.372 16.0309 134.922 10.0946 134.695C4.31349 134.468 -0.226033 129.555 0.000296579 123.761L0.00676314 123.754Z" fill="#FAFAFA" style="fill:#FAFAFA;fill:color(display-p3 0.9804 0.9804 0.9804);fill-opacity:1;"/>
<path d="M125.691 103.868C125.445 78.9854 138.831 61.446 165.79 61.1803C192.898 60.9145 206.626 78.1816 206.872 103.065C207.118 127.948 193.738 145.941 166.631 146.207C139.672 146.472 125.943 128.745 125.697 103.862L125.691 103.868ZM186.91 103.117C186.774 89.2264 179.402 83.192 166.152 83.3216C152.747 83.4512 145.498 89.6347 145.634 103.525C145.776 117.875 153.148 124.214 166.398 124.085C179.803 123.955 187.046 117.467 186.903 103.117H186.91Z" fill="#FAFAFA" style="fill:#FAFAFA;fill:color(display-p3 0.9804 0.9804 0.9804);fill-opacity:1;"/>
<path d="M216.482 127.701L216.682 82.0575L215.544 64.0385C215.111 58.3865 219.702 53.6744 225.341 53.7003C230.521 53.7262 234.918 57.7124 235.202 62.9043L236.049 78.0195H237.42C240.395 59.2616 250.321 53.8105 257.48 53.8429C264.483 53.8753 267.813 59.6894 267.781 65.9506C267.749 73.1258 263.144 80.7418 254.007 80.6964C246.545 80.664 237.692 83.9826 237.653 93.2967L237.498 127.799C237.472 133.6 232.732 138.312 226.945 138.286C221.157 138.26 216.456 133.509 216.482 127.708V127.701Z" fill="#FAFAFA" style="fill:#FAFAFA;fill:color(display-p3 0.9804 0.9804 0.9804);fill-opacity:1;"/>
<path d="M273.84 95.6887C273.795 80.7291 284.128 71.3825 302.862 71.3307C317.787 71.2853 323.904 78.4475 326.659 83.7819H327.118L327.086 71.5705C327.06 62.561 319.584 58.6137 310.292 58.6396C302.37 58.6655 299.182 60.96 296.906 63.7147C294.63 66.3139 292.354 69.5288 286.566 69.5482C279.867 69.5677 276.349 65.1537 276.33 59.197C276.284 43.7772 295.762 36.6992 312.213 36.6474C333.843 36.5825 348.335 44.7883 348.406 69.5158L348.49 98.061L349.893 109.203C350.676 115.458 345.813 120.967 339.573 120.987C334.244 121 329.963 117.046 329.187 111.705L327.946 102.702H327.183C323.865 113.708 315.504 120.753 299.971 120.799C285.047 120.844 273.905 112.781 273.853 95.6822L273.84 95.6887ZM327.907 94.6128C327.894 89.5765 319.054 87.9237 310.984 87.9432C301.543 87.9691 294.384 89.6738 294.404 94.71C294.417 99.7462 301.582 101.406 311.023 101.38C319.093 101.354 327.926 99.4999 327.907 94.6128Z" fill="#FAFAFA" style="fill:#FAFAFA;fill:color(display-p3 0.9804 0.9804 0.9804);fill-opacity:1;"/>
<path d="M379.18 7.01299C382.834 7.03244 385.866 10.0983 385.847 14.065L385.427 103.68C385.401 109.481 380.81 114.194 374.867 114.168C369.079 114.142 364.378 109.384 364.41 103.583L364.753 30.3016H363.382C357.291 30.2692 352.137 25.0514 352.169 18.4855C352.201 11.9196 356.948 6.90281 363.039 6.93521L379.186 7.01299H379.18Z" fill="#FAFAFA" style="fill:#FAFAFA;fill:color(display-p3 0.9804 0.9804 0.9804);fill-opacity:1;"/>
<path d="M472.331 89.2846C472.24 103.026 452.699 110.071 436.403 109.961C412.037 109.799 395.379 94.8782 395.56 67.8627C395.735 41.3009 412.444 25.2264 436.351 25.3884C462.702 25.5634 475.545 40.7629 475.422 59.8449C475.351 70.3776 469.997 74.4675 458.57 74.3897L416.99 74.1175C418.911 83.5937 428.779 87.7808 437.916 87.8456C445.534 87.8975 450.118 85.0261 454.399 82.6085C457.303 80.9492 459.902 79.5945 463.252 79.6139C467.669 79.6463 472.37 83.0298 472.325 89.291L472.331 89.2846ZM416.938 59.7606L454.561 59.2486C454.606 52.5336 447.952 45.4621 436.377 45.3908C426.632 45.326 418.374 50.0057 416.938 59.7671V59.7606Z" fill="#FAFAFA" style="fill:#FAFAFA;fill:color(display-p3 0.9804 0.9804 0.9804);fill-opacity:1;"/>
<path d="M509.694 32.4599C513.199 32.5248 516.335 35.6359 516.27 39.4536L514.861 116.229C514.563 132.407 502.917 144.411 491.193 144.191C484.035 144.061 480.491 138.04 480.588 132.699C480.795 121.401 493.657 126.224 493.928 111.264L494.95 55.5541L493.579 55.5281C487.488 55.418 482.405 50.1289 482.528 43.5695C482.651 37.0036 487.462 32.0581 493.553 32.1683L509.694 32.4664V32.4599ZM491.781 12.4316C491.917 5.10736 496.735 -0.149267 505.109 0.00629306C513.483 0.161853 518.107 5.587 517.971 12.9177C517.842 20.0929 513.018 25.3496 504.643 25.194C496.269 25.0384 491.646 19.6133 491.775 12.4381L491.781 12.4316Z" fill="#FAFAFA" style="fill:#FAFAFA;fill:color(display-p3 0.9804 0.9804 0.9804);fill-opacity:1;"/>
<path d="M526.921 96.7125C527.128 81.7528 537.61 72.5877 556.344 72.847C571.268 73.0544 577.263 80.3139 579.927 85.6936H580.386L580.554 73.4887C580.677 64.4857 573.273 60.4087 563.981 60.2791C556.059 60.1689 552.832 62.418 550.511 65.1338C548.189 67.6941 545.861 70.8701 540.074 70.7923C533.374 70.7016 529.934 66.2227 530.012 60.2726C530.225 44.8527 549.812 38.1053 566.263 38.3322C587.888 38.6303 602.243 47.0759 601.901 71.8034L601.506 100.349L602.722 111.51C603.394 117.778 598.447 123.209 592.207 123.119C586.879 123.047 582.669 119.016 581.977 113.662L580.884 104.64L580.121 104.627C576.616 115.568 568.145 122.477 552.612 122.263C537.688 122.056 526.682 113.811 526.921 96.7189V96.7125ZM581.001 96.5439C581.072 91.5077 572.258 89.7058 564.188 89.5956C554.746 89.466 547.562 91.0475 547.497 96.0837C547.426 101.12 554.565 102.902 564.007 103.032C572.077 103.142 580.936 101.431 581.001 96.5504V96.5439Z" fill="#FAFAFA" style="fill:#FAFAFA;fill:color(display-p3 0.9804 0.9804 0.9804);fill-opacity:1;"/>
<path d="M713.281 93.1416C715.144 95.3713 717.562 97.0695 719.884 98.7936C731.478 107.388 745.789 115.153 756.672 124.279C758.819 126.081 764.082 130.547 761.114 133.445C758.929 135.577 753.322 134.812 750.38 134.605C734.239 133.477 716.075 131.507 700.096 129.018C695.44 128.292 694.457 126.101 690.525 130.048C684.466 136.141 677.456 145.857 672.018 152.838C667.524 158.606 662.363 167.35 657.649 172.328C655.47 174.635 653.963 174.674 652.457 171.68C651.28 158.503 650.4 145.286 649.023 132.129C648.389 126.068 647.872 119.833 646.604 113.922C645.667 113.144 635.172 117.37 633.257 117.96C630.529 118.809 627.677 119.334 624.935 120.17C616.509 122.75 606.402 126.755 597.84 128.279C594.355 128.901 590.759 127.922 593.048 123.8C594.937 120.397 606.939 110.681 610.605 107.498C620.408 98.9945 630.619 90.9508 640.61 82.6608L641.502 81.4746C641.548 80.5413 638.373 76.7884 637.551 75.7383C627.935 63.5139 616.535 51.5359 607.792 38.6568C606.408 36.6151 602.192 31.5659 606.02 30.0816C608.484 29.1288 613.127 31.5659 615.604 32.6548C626.377 37.3799 636.445 43.7773 646.902 49.1182C651.429 51.4321 659.13 55.6841 663.657 57.1749C664.122 57.3305 664.446 57.486 664.957 57.2527C665.526 54.848 666.334 52.4627 667.181 50.1358C671.514 38.1577 675.73 25.3435 680.522 13.6247C681.382 11.5181 682.539 6.68929 685.766 7.90136C687.686 8.62731 688.831 15.6923 690.215 17.572L701.609 58.0694C710.184 57.2073 718.577 54.8221 727.074 53.3572C733.541 52.2424 740.88 51.0562 747.399 50.6025C769.036 49.0793 754.092 61.1741 746.435 67.9344C737.13 76.1532 725.755 84.696 715.661 91.9879C714.937 92.5129 714.199 92.9601 713.307 93.1416H713.281ZM752.701 54.9971C737.149 56.3388 721.791 59.3657 706.323 61.4593C702.573 61.9648 697.981 64.2853 696.203 59.2944C692.426 48.7228 688.663 32.7715 686.167 21.6036C685.831 20.1128 686.076 18.447 685.365 16.9498C680.14 28.8177 676.887 41.768 671.384 53.5905C670.544 55.3989 667.252 62.4963 665.636 62.95C663.611 63.5204 656.815 59.9814 654.597 58.9444C641.625 52.8905 629.293 44.7107 616.399 38.7929C615.856 38.5466 615.507 38.0022 614.808 38.3716L647.232 80.4375L647.355 82.22L600.446 122.892C607.262 120.565 614.142 118.614 621.023 116.56C628.841 114.22 636.963 111.206 645.04 109.676C652.133 108.335 650.336 111.012 651.196 115.957C651.454 117.441 652.056 118.841 652.289 120.28C654.798 135.434 655.16 150.828 656.447 166.093C657.177 166.093 657.164 165.6 657.475 165.185C666.567 153.239 675.025 140.847 684.848 129.439C686.393 127.643 689.348 124.37 691.521 123.586C694.632 122.465 705.476 124.059 709.434 124.422C724.947 125.848 740.344 128.136 755.773 130.178L750.283 125.498C737.686 116.126 723.492 107.803 711.406 97.8343C708.761 95.65 705.373 93.7509 708.89 90.4128C721.5 78.4736 739.898 69.6197 751.738 56.598C752.145 56.1443 752.708 55.6452 752.708 54.9841L752.701 54.9971Z" fill="#00FF7F" style="fill:#00FF7F;fill:color(display-p3 0.0000 1.0000 0.4980);fill-opacity:1;"/>
<path d="M699.068 92.2732C699.689 97.277 693.261 103.123 689.032 104.718C682.443 107.2 676.338 107.123 670.007 104.083C667.705 102.981 657.398 96.8687 661.316 93.6732C663.664 91.7547 666.341 95.9483 668.223 97.3289C675.666 102.793 682.779 102.916 690.623 97.9317C691.942 97.0956 698.066 91.7352 699.068 92.2732Z" fill="#00FF7F" style="fill:#00FF7F;fill:color(display-p3 0.0000 1.0000 0.4980);fill-opacity:1;"/>
<path d="M687.369 88.5008C686.095 90.7305 681.614 88.7601 683.451 86.0637C685.3 83.3479 688.585 86.3813 687.369 88.5008Z" fill="#00FF7F" style="fill:#00FF7F;fill:color(display-p3 0.0000 1.0000 0.4980);fill-opacity:1;"/>
<path d="M672.677 85.8499C673.861 86.524 673.602 88.488 672.115 88.9028C669.16 89.726 669.974 84.3203 672.677 85.8499Z" fill="#00FF7F" style="fill:#00FF7F;fill:color(display-p3 0.0000 1.0000 0.4980);fill-opacity:1;"/>
</g>
<defs>
<clipPath id="clip0_80_447">
<rect width="762" height="174" fill="white" style="fill:white;fill-opacity:1;"/>
</clipPath>
</defs>
</svg>
